{
  "accessors": [
    {
      "bufferView": 2,
      "componentType": 5126,
      "count": 25,
      "max": [
        1,
        0.044321008026599884,
        0.999988853931427
      ],
      "min": [
        -1,
        0.044321008026599884,
        -1.0000094175338745
      ],
      "type": "VEC3"
    },
    {
      "bufferView": 2,
      "byteOffset": 300,
      "componentType": 5126,
      "count": 25,
      "max": [
        0,
        1,
        1.6429796190209345e-08
      ],
      "min": [
        0,
        1,
        -1.1261493959580093e-08
      ],
      "type": "VEC3"
    },
    {
      "bufferView": 1,
      "componentType": 5126,
      "count": 25,
      "max": [
        0.99999994039535522,
        1
      ],
      "min": [
        -0,
        0
      ],
      "type": "VEC2"
    },
    {
      "bufferView": 1,
      "byteOffset": 200,
      "componentType": 5126,
      "count": 25,
      "max": [
        0.99999994039535522,
        1
      ],
      "min": [
        -0,
        0
      ],
      "type": "VEC2"
    },
    {
      "bufferView": 1,
      "byteOffset": 400,
      "componentType": 5126,
      "count": 25,
      "max": [
        0.99999994039535522,
        1
      ],
      "min": [
        -0,
        0
      ],
      "type": "VEC2"
    },
    {
      "bufferView": 0,
      "componentType": 5125,
      "count": 96,
      "max": [
        24
      ],
      "min": [
        0
      ],
      "type": "SCALAR"
    },
    {
      "bufferView": 2,
      "byteOffset": 600,
      "componentType": 5126,
      "count": 65,
      "max": [
        1,
        0.044321008026599884,
        0.999988853931427
      ],
      "min": [
        -1,
        0,
        -1.0000094175338745
      ],
      "type": "VEC3"
    },
    {
      "bufferView": 2,
      "byteOffset": 1380,
      "componentType": 5126,
      "count": 65,
      "max": [
        1,
        1.7850858284873539e-06,
        1
      ],
      "min": [
        -1,
        -1,
        -1
      ],
      "type": "VEC3"
    },
    {
      "bufferView": 1,
      "byteOffset": 600,
      "componentType": 5126,
      "count": 65,
      "max": [
        7.6258182525634766,
        1
      ],
      "min": [
        -1.0632510185241699,
        0
      ],
      "type": "VEC2"
    },
    {
      "bufferView": 1,
      "byteOffset": 1120,
      "componentType": 5126,
      "count": 65,
      "max": [
        7.6258182525634766,
        1
      ],
      "min": [
        -1.0632510185241699,
        0
      ],
      "type": "VEC2"
    },
    {
      "bufferView": 1,
      "byteOffset": 1640,
      "componentType": 5126,
      "count": 65,
      "max": [
        7.6258182525634766,
        1
      ],
      "min": [
        -1.0632510185241699,
        0
      ],
      "type": "VEC2"
    },
    {
      "bufferView": 0,
      "byteOffset": 384,
      "componentType": 5125,
      "count": 192,
      "max": [
        64
      ],
      "min": [
        0
      ],
      "type": "SCALAR"
    },
    {
      "bufferView": 2,
      "byteOffset": 2160,
      "componentType": 5126,
      "count": 24,
      "max": [
        0.61081844568252563,
        1.0782743692398071,
        0.6807098388671875
      ],
      "min": [
        -0.65957188606262207,
        -0.042966626584529877,
        -0.58900535106658936
      ],
      "type": "VEC3"
    },
    {
      "bufferView": 2,
      "byteOffset": 2448,
      "componentType": 5126,
      "count": 24,
      "max": [
        0.94450366497039795,
        0.030266648158431053,
        0.94469171762466431
      ],
      "min": [
        -0.94450420141220093,
        -0.030266614630818367,
        -0.94469219446182251
      ],
      "type": "VEC3"
    },
    {
      "bufferView": 1,
      "byteOffset": 2160,
      "componentType": 5126,
      "count": 24,
      "max": [
        0.99181902408599854,
        0.91345405578613281
      ],
      "min": [
        -0.003136487677693367,
        0
      ],
      "type": "VEC2"
    },
    {
      "bufferView": 0,
      "byteOffset": 1152,
      "componentType": 5125,
      "count": 48,
      "max": [
        23
      ],
      "min": [
        0
      ],
      "type": "SCALAR"
    },
    {
      "bufferView": 2,
      "byteOffset": 2736,
      "componentType": 5126,
      "count": 24,
      "max": [
        0.61081844568252563,
        1.0782743692398071,
        0.6807098388671875
      ],
      "min": [
        -0.65957188606262207,
        -0.042966626584529877,
        -0.58900535106658936
      ],
      "type": "VEC3"
    },
    {
      "bufferView": 2,
      "byteOffset": 3024,
      "componentType": 5126,
      "count": 24,
      "max": [
        0.94450366497039795,
        0.030266648158431053,
        0.94469171762466431
      ],
      "min": [
        -0.94450420141220093,
        -0.030266614630818367,
        -0.94469219446182251
      ],
      "type": "VEC3"
    },
    {
      "bufferView": 1,
      "byteOffset": 2352,
      "componentType": 5126,
      "count": 24,
      "max": [
        0.99181902408599854,
        0.91345405578613281
      ],
      "min": [
        -0.003136487677693367,
        0
      ],
      "type": "VEC2"
    },
    {
      "bufferView": 0,
      "byteOffset": 1344,
      "componentType": 5125,
      "count": 48,
      "max": [
        23
      ],
      "min": [
        0
      ],
      "type": "SCALAR"
    },
    {
      "bufferView": 2,
      "byteOffset": 3312,
      "componentType": 5126,
      "count": 24,
      "max": [
        0.61081844568252563,
        1.0782743692398071,
        0.6807098388671875
      ],
      "min": [
        -0.65957188606262207,
        -0.042966626584529877,
        -0.58900535106658936
      ],
      "type": "VEC3"
    },
    {
      "bufferView": 2,
      "byteOffset": 3600,
      "componentType": 5126,
      "count": 24,
      "max": [
        0.94450366497039795,
        0.030266648158431053,
        0.94469171762466431
      ],
      "min": [
        -0.94450420141220093,
        -0.030266614630818367,
        -0.94469219446182251
      ],
      "type": "VEC3"
    },
    {
      "bufferView": 1,
      "byteOffset": 2544,
      "componentType": 5126,
      "count": 24,
      "max": [
        0.99181902408599854,
        0.91345405578613281
      ],
      "min": [
        -0.003136487677693367,
        0
      ],
      "type": "VEC2"
    },
    {
      "bufferView": 0,
      "byteOffset": 1536,
      "componentType": 5125,
      "count": 48,
      "max": [
        23
      ],
      "min": [
        0
      ],
      "type": "SCALAR"
    },
    {
      "bufferView": 2,
      "byteOffset": 3888,
      "componentType": 5126,
      "count": 24,
      "max": [
        0.61081844568252563,
        1.0782743692398071,
        0.6807098388671875
      ],
      "min": [
        -0.65957188606262207,
        -0.042966626584529877,
        -0.58900535106658936
      ],
      "type": "VEC3"
    },
    {
      "bufferView": 2,
      "byteOffset": 4176,
      "componentType": 5126,
      "count": 24,
      "max": [
        0.94450366497039795,
        0.030266648158431053,
        0.94469171762466431
      ],
      "min": [
        -0.94450420141220093,
        -0.030266614630818367,
        -0.94469219446182251
      ],
      "type": "VEC3"
    },
    {
      "bufferView": 1,
      "byteOffset": 2736,
      "componentType": 5126,
      "count": 24,
      "max": [
        0.99181902408599854,
        0.91345405578613281
      ],
      "min": [
        -0.003136487677693367,
        0
      ],
      "type": "VEC2"
    },
    {
      "bufferView": 0,
      "byteOffset": 1728,
      "componentType": 5125,
      "count": 48,
      "max": [
        23
      ],
      "min": [
        0
      ],
      "type": "SCALAR"
    },
    {
      "bufferView": 2,
      "byteOffset": 4464,
      "componentType": 5126,
      "count": 24,
      "max": [
        0.61081844568252563,
        1.0782743692398071,
        0.6807098388671875
      ],
      "min": [
        -0.65957188606262207,
        -0.042966626584529877,
        -0.58900535106658936
      ],
      "type": "VEC3"
    },
    {
      "bufferView": 2,
      "byteOffset": 4752,
      "componentType": 5126,
      "count": 24,
      "max": [
        0.94450366497039795,
        0.030266648158431053,
        0.94469171762466431
      ],
      "min": [
        -0.94450420141220093,
        -0.030266614630818367,
        -0.94469219446182251
      ],
      "type": "VEC3"
    },
    {
      "bufferView": 1,
      "byteOffset": 2928,
      "componentType": 5126,
      "count": 24,
      "max": [
        0.99181902408599854,
        0.91345405578613281
      ],
      "min": [
        -0.003136487677693367,
        0
      ],
      "type": "VEC2"
    },
    {
      "bufferView": 0,
      "byteOffset": 1920,
      "componentType": 5125,
      "count": 48,
      "max": [
        23
      ],
      "min": [
        0
      ],
      "type": "SCALAR"
    }
  ],
  "asset": {
    "extras": {
      "author": "pooiloui2 (https://sketchfab.com/pooiloui2)",
      "license": "CC-BY-4.0 (http://creativecommons.org/licenses/by/4.0/)",
      "source": "https://sketchfab.com/3d-models/grass-lawn-7b7ef2ff56e041d1bcc2b330ea8b1f19",
      "title": "Grass Lawn"
    },
    "generator": "Sketchfab-8.51.0",
    "version": "2.0"
  },
  "bufferViews": [
    {
      "buffer": 0,
      "byteLength": 2112,
      "byteOffset": 0,
      "name": "floatBufferViews",
      "target": 34963
    },
    {
      "buffer": 0,
      "byteLength": 3120,
      "byteOffset": 2112,
      "byteStride": 8,
      "name": "floatBufferViews",
      "target": 34962
    },
    {
      "buffer": 0,
      "byteLength": 5040,
      "byteOffset": 5232,
      "byteStride": 12,
      "name": "floatBufferViews",
      "target": 34962
    }
  ],
  "buffers": [
    {
      "byteLength": 10272,
      "uri": "scene.bin"
    }
  ],
  "extensionsRequired": [
    "KHR_materials_pbrSpecularGlossiness"
  ],
  "extensionsUsed": [
    "KHR_materials_pbrSpecularGlossiness"
  ],
  "images": [
    {
      "uri": "textures/material_diffuse.png"
    },
    {
      "uri": "textures/material_specularGlossiness.png"
    },
    {
      "uri": "textures/material_1_diffuse.png"
    },
    {
      "uri": "textures/material_1_specularGlossiness.png"
    },
    {
      "uri": "textures/material_2_diffuse.png"
    }
  ],
  "materials": [
    {
      "doubleSided": true,
      "emissiveFactor": [
        0,
        0,
        0
      ],
      "extensions": {
        "KHR_materials_pbrSpecularGlossiness": {
          "diffuseFactor": [
            1,
            1,
            1,
            1
          ],
          "diffuseTexture": {
            "index": 0,
            "texCoord": 0
          },
          "glossinessFactor": 1,
          "specularFactor": [
            1,
            1,
            1
          ],
          "specularGlossinessTexture": {
            "index": 1,
            "texCoord": 0
          }
        }
      },
      "name": "material"
    },
    {
      "doubleSided": true,
      "emissiveFactor": [
        0,
        0,
        0
      ],
      "extensions": {
        "KHR_materials_pbrSpecularGlossiness": {
          "diffuseFactor": [
            1,
            1,
            1,
            1
          ],
          "diffuseTexture": {
            "index": 2,
            "texCoord": 0
          },
          "glossinessFactor": 1,
          "specularFactor": [
            1,
            1,
            1
          ],
          "specularGlossinessTexture": {
            "index": 3,
            "texCoord": 0
          }
        }
      },
      "name": "material_1"
    },
    {
      "alphaCutoff": 0.5,
      "alphaMode": "MASK",
      "doubleSided": true,
      "emissiveFactor": [
        0,
        0,
        0
      ],
      "extensions": {
        "KHR_materials_pbrSpecularGlossiness": {
          "diffuseFactor": [
            1,
            1,
            1,
            1
          ],
          "diffuseTexture": {
            "index": 4,
            "texCoord": 0
          },
          "glossinessFactor": 0,
          "specularFactor": [
            0,
            0,
            0
          ]
        }
      },
      "name": "material_2"
    }
  ],
  "meshes": [
    {
      "primitives": [
        {
          "attributes": {
            "NORMAL": 1,
            "POSITION": 0,
            "TEXCOORD_0": 2,
            "TEXCOORD_1": 3,
            "TEXCOORD_2": 4
          },
          "indices": 5,
          "material": 0,
          "mode": 4
        }
      ]
    },
    {
      "primitives": [
        {
          "attributes": {
            "NORMAL": 7,
            "POSITION": 6,
            "TEXCOORD_0": 8,
            "TEXCOORD_1": 9,
            "TEXCOORD_2": 10
          },
          "indices": 11,
          "material": 1,
          "mode": 4
        }
      ]
    },
    {
      "primitives": [
        {
          "attributes": {
            "NORMAL": 13,
            "POSITION": 12,
            "TEXCOORD_0": 14
          },
          "indices": 15,
          "material": 2,
          "mode": 4
        }
      ]
    },
    {
      "primitives": [
        {
          "attributes": {
            "NORMAL": 17,
            "POSITION": 16,
            "TEXCOORD_0": 18
          },
          "indices": 19,
          "material": 2,
          "mode": 4
        }
      ]
    },
    {
      "primitives": [
        {
          "attributes": {
            "NORMAL": 21,
            "POSITION": 20,
            "TEXCOORD_0": 22
          },
          "indices": 23,
          "material": 2,
          "mode": 4
        }
      ]
    },
    {
      "primitives": [
        {
          "attributes": {
            "NORMAL": 25,
            "POSITION": 24,
            "TEXCOORD_0": 26
          },
          "indices": 27,
          "material": 2,
          "mode": 4
        }
      ]
    },
    {
      "primitives": [
        {
          "attributes": {
            "NORMAL": 29,
            "POSITION": 28,
            "TEXCOORD_0": 30
          },
          "indices": 31,
          "material": 2,
          "mode": 4
        }
      ]
    }
  ],
  "nodes": [
    {
      "children": [
        1
      ],
      "name": "RootNode (gltf orientation matrix)",
      "rotation": [
        -0.70710678118654746,
        -0,
        -0,
        0.70710678118654757
      ]
    },
    {
      "children": [
        2
      ],
      "name": "RootNode (model correction matrix)"
    },
    {
      "children": [
        3
      ],
      "name": "root"
    },
    {
      "children": [
        4
      ],
      "matrix": [
        1,
        0,
        0,
        0,
        0,
        2.2204460492503131e-16,
        1,
        0,
        0,
        -1,
        2.2204460492503131e-16,
        0,
        0,
        0,
        0,
        1
      ],
      "name": "GLTF_SceneRootNode"
    },
    {
      "children": [
        5,
        10,
        12,
        14,
        16,
        18
      ],
      "name": "root_2"
    },
    {
      "children": [
        6,
        8
      ],
      "matrix": [
        0.0010000000474974513,
        0,
        0,
        0,
        0,
        0.0010000000474974513,
        0,
        0,
        0,
        0,
        0.0010000000474974513,
        0,
        -0.0057354909367859364,
        -0.1543269157409668,
        0,
        1
      ],
      "name": "node_id35_3"
    },
    {
      "children": [
        7
      ],
      "matrix": [
        256,
        0,
        0,
        0,
        0,
        256,
        0,
        0,
        0,
        0,
        256,
        0,
        -0.00010673798533389345,
        -5.6730890274047852,
        256.00262451171875,
        1
      ],
      "name": "node_id31_1"
    },
    {
      "mesh": 0,
      "name": ""
    },
    {
      "children": [
        9
      ],
      "matrix": [
        256,
        0,
        0,
        0,
        0,
        256,
        0,
        0,
        0,
        0,
        256,
        0,
        -0.00010673798533389345,
        -5.6730890274047852,
        256.00262451171875,
        1
      ],
      "name": "node_id33_5"
    },
    {
      "mesh": 1,
      "name": ""
    },
    {
      "children": [
        11
      ],
      "matrix": [
        0.099951118230819702,
        0,
        0,
        0,
        0,
        0.099951118230819702,
        0,
        0,
        0,
        0,
        0.099951118230819702,
        0,
        -0.17894627153873444,
        -0.15570545196533203,
        0.42989605665206909,
        1
      ],
      "name": "node_id46_6"
    },
    {
      "mesh": 2,
      "name": ""
    },
    {
      "children": [
        13
      ],
      "matrix": [
        0.099951118230819702,
        0,
        0,
        0,
        0,
        0.099951118230819702,
        0,
        0,
        0,
        0,
        0.099951118230819702,
        0,
        0.08024141937494278,
        -0.15570545196533203,
        0.057397976517677307,
        1
      ],
      "name": "node_id54_7"
    },
    {
      "mesh": 3,
      "name": ""
    },
    {
      "children": [
        15
      ],
      "matrix": [
        0.099951118230819702,
        0,
        0,
        0,
        0,
        0.099951118230819702,
        0,
        0,
        0,
        0,
        0.099951118230819702,
        0,
        -0.019638529047369957,
        -0.15570545196533203,
        0.29002958536148071,
        1
      ],
      "name": "node_id58_8"
    },
    {
      "mesh": 4,
      "name": ""
    },
    {
      "children": [
        17
      ],
      "matrix": [
        0.099951118230819702,
        0,
        0,
        0,
        0,
        0.099951118230819702,
        0,
        0,
        0,
        0,
        0.099951118230819702,
        0,
        -0.17894627153873444,
        -0.15570545196533203,
        0.25954398512840271,
        1
      ],
      "name": "node_id60_4"
    },
    {
      "mesh": 5,
      "name": ""
    },
    {
      "children": [
        19
      ],
      "matrix": [
        0.099951118230819702,
        0,
        0,
        0,
        0,
        0.099951118230819702,
        0,
        0,
        0,
        0,
        0.099951118230819702,
        0,
        0.13581423461437225,
        -0.15570545196533203,
        0.44382622838020325,
        1
      ],
      "name": "node_id62_0"
    },
    {
      "mesh": 6,
      "name": ""
    }
  ],
  "samplers": [
    {
      "magFilter": 9729,
      "minFilter": 9987,
      "wrapS": 10497,
      "wrapT": 10497
    }
  ],
  "scene": 0,
  "scenes": [
    {
      "name": "OSG_Scene",
      "nodes": [
        0
      ]
    }
  ],
  "textures": [
    {
      "sampler": 0,
      "source": 0
    },
    {
      "sampler": 0,
      "source": 1
    },
    {
      "sampler": 0,
      "source": 2
    },
    {
      "sampler": 0,
      "source": 3
    },
    {
      "sampler": 0,
      "source": 4
    }
  ]
}

